<?xml version="1.0" encoding="UTF-8" standalone="no"?>
<svg width="156px" height="131px" viewBox="0 0 156 131" version="1.1" xmlns="http://www.w3.org/2000/svg" xmlns:xlink="http://www.w3.org/1999/xlink">
    <!-- Generator: Sketch 39 (31667) - http://www.bohemiancoding.com/sketch -->
    <title>Form Fill</title>
    <desc>Created with Sketch.</desc>
    <defs></defs>
    <g id="Page-1" stroke="none" stroke-width="1" fill="none" fill-rule="evenodd">
        <g id="Form-Fill">
            <rect id="Rectangle-2" fill="#A6EABF" x="0.05859375" y="27.0185547" width="155.483966" height="76.7675781" rx="8"></rect>
            <path d="M106.663499,125.046301 C106.724534,125.113274 106.796558,125.188776 106.881208,125.273426 C110.13935,128.176478 113.639893,129.673556 117.96999,130.274384 C121.154053,130.716192 123.415171,130.708753 130.812821,130.428036 C134.269717,130.296858 136.362779,130.242003 138.786585,130.242003 L141.786583,130.242003 L141.786585,127.242004 C141.786586,121.868302 141.786586,121.868302 141.786585,116.213272 L141.786583,113.213274 L138.786585,113.213274 C137.613494,113.213274 136.616857,113.220329 134.842758,113.238041 C124.344021,113.342856 121.759694,112.911303 119.001512,110.153122 C116.892734,108.044343 115.936007,107.271001 115.4823,106.363587 C115.4823,106.363587 115.153594,105.972311 115.153594,105.184545 L115.153594,25.6201428 C115.153594,25.6201428 115.624642,24.5984845 115.624642,24.5984845 C116.078349,23.6910699 116.892734,22.7603441 119.001512,20.6515659 C121.76939,17.8836887 124.346353,17.4629289 135.372225,17.5666634 C137.247341,17.584305 138.318187,17.5914138 139.574351,17.5914138 L142.574352,17.5914138 L142.574351,14.5914125 C142.57435,9.74396173 142.57435,9.74396173 142.574351,3.56268576 L142.574352,0.562684839 L139.574351,0.562684839 C137.150545,0.562684839 135.057484,0.507829648 131.600587,0.376651406 C124.202937,0.0959341056 121.94182,0.0884955429 118.757756,0.53030392 C114.427659,1.1311314 110.927116,2.62820922 107.797203,5.41035408 C107.235507,5.96624088 106.873717,6.71049464 106.663499,7.39122605 C106.453281,6.71049464 106.091491,5.96624088 105.529795,5.41035408 C102.399882,2.62820922 98.8993392,1.1311314 94.5692426,0.53030392 C91.3851788,0.0884955429 89.1240617,0.0959341056 81.7264117,0.376651406 C78.2695149,0.507829648 76.1764532,0.562684839 73.7526476,0.562684839 L70.7526467,0.562684839 L70.7526476,3.56268576 C70.7526489,9.74396173 70.7526489,9.74396173 70.7526476,14.5914125 L70.7526463,17.5914138 L73.7526476,17.5914138 C75.008812,17.5914138 76.079658,17.584305 77.9547731,17.5666634 C88.9806452,17.4629289 91.5576089,17.8836887 94.3254862,20.6515659 C96.4342644,22.7603441 97.2486494,23.6910699 97.7023567,24.5984845 C97.7023567,24.5984845 98.1734047,25.6201428 98.1734047,25.6201428 L98.1734047,105.184545 C98.1734047,105.972311 97.8446987,106.363587 97.8446987,106.363587 C97.3909913,107.271001 96.4342644,108.044343 94.3254862,110.153122 C91.5673045,112.911303 88.9829778,113.342856 78.4842407,113.238041 C76.7101416,113.220329 75.7135043,113.213274 74.540414,113.213274 L71.5404156,113.213274 L71.540414,116.213272 C71.5404123,121.868302 71.5404123,121.868302 71.540414,127.242004 L71.5404158,130.242003 L74.540414,130.242003 C76.9642195,130.242003 79.0572812,130.296858 82.514178,130.428036 C89.911828,130.708753 92.1729452,130.716192 95.3570089,130.274384 C99.6871056,129.673556 103.187649,128.176478 106.44579,125.273426 C106.53044,125.188776 106.602465,125.113274 106.663499,125.046301 L106.663499,125.046301 Z" id="Combined-Shape" fill="#1BB978"></path>
        </g>
    </g>
</svg>