<?xml version="1.0" encoding="UTF-8" standalone="no"?>
<svg width="151px" height="154px" viewBox="0 0 151 154" version="1.1" xmlns="http://www.w3.org/2000/svg" xmlns:xlink="http://www.w3.org/1999/xlink">
    <!-- Generator: Sketch 39 (31667) - http://www.bohemiancoding.com/sketch -->
    <title>Google</title>
    <desc>Created with Sketch.</desc>
    <defs>
        <path d="M148.253308,62.7896364 L139.532525,62.7896364 L110.928358,62.7896364 L76.7428889,62.7896364 L76.7428889,92.440298 L117.904984,92.440298 C114.067839,111.277189 98.021599,122.09096 76.7428889,122.09096 C51.6270344,122.09096 31.3948182,101.858743 31.3948182,76.7428889 C31.3948182,51.6270344 51.6270344,31.3948182 76.7428889,31.3948182 C87.5566596,31.3948182 97.3239364,35.2319626 104.998225,41.5109263 L127.323429,19.1857222 C113.719008,7.32545758 96.2774425,-5.68434189e-14 76.7428889,-5.68434189e-14 C34.1854687,-5.68434189e-14 5.68434189e-14,34.1854687 5.68434189e-14,76.7428889 C5.68434189e-14,119.300309 34.1854687,153.485778 76.7428889,153.485778 C115.114333,153.485778 149.997465,125.579273 149.997465,76.7428889 C149.997465,72.2080818 149.299802,67.3244435 148.253308,62.7896364 L148.253308,62.7896364 Z" id="path-1"></path>
        <path d="M148.253308,62.7896364 L139.532525,62.7896364 L110.928358,62.7896364 L76.7428889,62.7896364 L76.7428889,92.440298 L117.904984,92.440298 C114.067839,111.277189 98.021599,122.09096 76.7428889,122.09096 C51.6270344,122.09096 31.3948182,101.858743 31.3948182,76.7428889 C31.3948182,51.6270344 51.6270344,31.3948182 76.7428889,31.3948182 C87.5566596,31.3948182 97.3239364,35.2319626 104.998225,41.5109263 L127.323429,19.1857222 C113.719008,7.32545758 96.2774425,-5.68434189e-14 76.7428889,-5.68434189e-14 C34.1854687,-5.68434189e-14 5.68434189e-14,34.1854687 5.68434189e-14,76.7428889 C5.68434189e-14,119.300309 34.1854687,153.485778 76.7428889,153.485778 C115.114333,153.485778 149.997465,125.579273 149.997465,76.7428889 C149.997465,72.2080818 149.299802,67.3244435 148.253308,62.7896364 L148.253308,62.7896364 Z" id="path-3"></path>
        <path d="M148.253308,62.7896364 L139.532525,62.7896364 L110.928358,62.7896364 L76.7428889,62.7896364 L76.7428889,92.440298 L117.904984,92.440298 C114.067839,111.277189 98.021599,122.09096 76.7428889,122.09096 C51.6270344,122.09096 31.3948182,101.858743 31.3948182,76.7428889 C31.3948182,51.6270344 51.6270344,31.3948182 76.7428889,31.3948182 C87.5566596,31.3948182 97.3239364,35.2319626 104.998225,41.5109263 L127.323429,19.1857222 C113.719008,7.32545758 96.2774425,-5.68434189e-14 76.7428889,-5.68434189e-14 C34.1854687,-5.68434189e-14 5.68434189e-14,34.1854687 5.68434189e-14,76.7428889 C5.68434189e-14,119.300309 34.1854687,153.485778 76.7428889,153.485778 C115.114333,153.485778 149.997465,125.579273 149.997465,76.7428889 C149.997465,72.2080818 149.299802,67.3244435 148.253308,62.7896364 L148.253308,62.7896364 Z" id="path-5"></path>
        <path d="M148.253308,62.7896364 L139.532525,62.7896364 L110.928358,62.7896364 L76.7428889,62.7896364 L76.7428889,92.440298 L117.904984,92.440298 C114.067839,111.277189 98.021599,122.09096 76.7428889,122.09096 C51.6270344,122.09096 31.3948182,101.858743 31.3948182,76.7428889 C31.3948182,51.6270344 51.6270344,31.3948182 76.7428889,31.3948182 C87.5566596,31.3948182 97.3239364,35.2319626 104.998225,41.5109263 L127.323429,19.1857222 C113.719008,7.32545758 96.2774425,-5.68434189e-14 76.7428889,-5.68434189e-14 C34.1854687,-5.68434189e-14 5.68434189e-14,34.1854687 5.68434189e-14,76.7428889 C5.68434189e-14,119.300309 34.1854687,153.485778 76.7428889,153.485778 C115.114333,153.485778 149.997465,125.579273 149.997465,76.7428889 C149.997465,72.2080818 149.299802,67.3244435 148.253308,62.7896364 L148.253308,62.7896364 Z" id="path-7"></path>
    </defs>
    <g id="Page-1" stroke="none" stroke-width="1" fill="none" fill-rule="evenodd">
        <g id="Google" transform="translate(0.268342, 0.441068)">
            <mask id="mask-2" fill="white">
                <use xlink:href="#path-1"></use>
            </mask>
            <g id="SVGID_1_"></g>
            <polygon id="Shape" fill="#1BB978" mask="url(#mask-2)" points="-6.97662626 122.09096 -6.97662626 31.3948182 52.324697 76.7428889"></polygon>
            <mask id="mask-4" fill="white">
                <use xlink:href="#path-3"></use>
            </mask>
            <g id="SVGID_1_"></g>
            <polygon id="Shape" fill="#A6EABF" mask="url(#mask-4)" points="-6.97662626 31.3948182 52.324697 76.7428889 76.7428889 55.4641788 160.462404 41.8597576 160.462404 -6.97662626 -6.97662626 -6.97662626"></polygon>
            <mask id="mask-6" fill="white">
                <use xlink:href="#path-5"></use>
            </mask>
            <g id="SVGID_1_"></g>
            <polygon id="Shape" fill="#1BB978" mask="url(#mask-6)" points="-6.97662626 122.09096 97.6727677 41.8597576 125.230441 45.3480707 160.462404 -6.97662626 160.462404 160.462404 -6.97662626 160.462404"></polygon>
            <mask id="mask-8" fill="white">
                <use xlink:href="#path-7"></use>
            </mask>
            <g id="SVGID_1_"></g>
            <polygon id="Shape" fill="#A6EABF" mask="url(#mask-8)" points="160.462404 160.462404 52.324697 76.7428889 38.3714445 66.2779495 160.462404 31.3948182"></polygon>
        </g>
    </g>
</svg>