<?xml version="1.0" encoding="UTF-8" standalone="no"?>
<svg width="131px" height="158px" viewBox="0 0 131 158" version="1.1" xmlns="http://www.w3.org/2000/svg" xmlns:xlink="http://www.w3.org/1999/xlink">
    <!-- Generator: Sketch 39 (31667) - http://www.bohemiancoding.com/sketch -->
    <title>Shield</title>
    <desc>Created with Sketch.</desc>
    <defs></defs>
    <g id="Page-1" stroke="none" stroke-width="1" fill="none" fill-rule="evenodd">
        <g id="Shield" transform="translate(0.205698, 0.191406)">
            <path d="M65.007879,157.201685 L65.007486,157.28893 C65.007486,157.28893 130.059938,150.048687 130.059938,22.095521 C85.6408357,22.095521 65.7138605,0.467645085 65.7138605,0.467645085 L65.7006399,3.40272638 C65.7069674,1.5079438 65.7104073,0.484623397 65.7104073,0.484623397 C65.7104073,0.484623397 44.9911109,22.095521 0.572008948,22.095521 C0.572008948,145.702753 60.9091713,156.603774 65.007879,157.201685 L65.007879,157.201685 Z" id="Combined-Shape" fill="#1BB978"></path>
            <path d="M130.059938,22.095521 C85.6408357,22.095521 65.7138605,0.467645085 65.7138605,0.467645085 C65.7104073,0.484623397 65.007486,136.680904 65.007879,157.201685 C65.007486,157.28893 130.059938,150.048687 130.059938,22.095521 Z" id="Combined-Shape" fill="#A6EABF"></path>
        </g>
    </g>
</svg>